<svg id="Calque_3" data-name="Calque 3" xmlns="http://www.w3.org/2000/svg" viewBox="0 0 595.28 595.28"><defs><style>.cls-1{opacity:0.5;}.cls-2,.cls-4,.cls-7{fill:#1d1d1b;}.cls-2,.cls-3,.cls-4,.cls-5{stroke:#1d1d1b;}.cls-11,.cls-12,.cls-2,.cls-5,.cls-6{stroke-linecap:round;}.cls-10,.cls-11,.cls-12,.cls-2,.cls-3,.cls-4,.cls-5,.cls-6,.cls-8{stroke-miterlimit:10;}.cls-2,.cls-6{stroke-width:12px;}.cls-11,.cls-12,.cls-3,.cls-5,.cls-8{fill:none;}.cls-3,.cls-8{stroke-width:22px;}.cls-11,.cls-12,.cls-5{stroke-width:14px;}.cls-10,.cls-6{fill:#fff;}.cls-10,.cls-12,.cls-6,.cls-8{stroke:#fff;}.cls-7{opacity:0.41;}.cls-9{fill:#634394;}.cls-11{stroke:#634394;}</style></defs><g class="cls-1"><path class="cls-2" d="M241.56,327.37,140,503.35a30.31,30.31,0,0,0,11.1,41.4h0a30.3,30.3,0,0,0,41.4-11.1L298.19,350.52"/><circle class="cls-3" cx="330.3" cy="210.28" r="146.91"/><circle class="cls-4" cx="260.86" cy="160.15" r="17.63"/><circle class="cls-4" cx="377.05" cy="193.46" r="15.67"/><path class="cls-5" d="M259.06,160.15A87.56,87.56,0,1,1,250,243.82"/><path class="cls-5" d="M372.57,236.62a48.4,48.4,0,1,1,4.48-44"/></g><path class="cls-6" d="M232.65,318.91l-101.6,176a30.3,30.3,0,0,0,11.09,41.4h0a30.31,30.31,0,0,0,41.41-11.09L289.28,342.07"/><path class="cls-7" d="M224.69,320.7c16.24,18.69,36.88,31.36,63.38,35.47l-5.18,9c-28-8.71-49.58-18.64-64.72-33.2Z"/><circle class="cls-8" cx="321.38" cy="201.83" r="146.91"/><circle class="cls-9" cx="251.94" cy="151.7" r="17.63"/><circle class="cls-10" cx="368.13" cy="185" r="15.67"/><path class="cls-11" d="M251.22,151.69a87.56,87.56,0,1,1-9.11,83.68"/><path class="cls-12" d="M363.65,228.17a48.4,48.4,0,1,1,4.48-44"/></svg>